# xmcd
#
# Track frame offsets:
#	150
#	18074
#	39266
#	59425
#	77818
#	93015
#	108251
#	129230
#	140672
#	160284
#	176904
#	190410
#	207516
#	224321
#	241791
#	256471
#
# Disc length: 3737 seconds
#
# Revision: 0
# Processed by: cddbd v1.5.2PL0 Copyright (c) Steve Scherf et al.
# Submitted via: EasyCDDAExtractor 16.0.4.1
#
DISCID=d90e9710
DTITLE=Verica Šerifović - Romanse
DYEAR=2012
DGENRE=Romanse
TTITLE0=Molitva Je Za Me
TTITLE1=Bele Ruže, Nežne Ruže
TTITLE2=Zakleću Se Ja Pred Svima
TTITLE3=Cura Biće Žena
TTITLE4=Stari Cigan
TTITLE5=Ne Mogu Ti Ništa Osim Cveća Dati
TTITLE6=K'o Lepi San
TTITLE7=Usamljena Harmonika
TTITLE8=Hoću Da Te Zaboravim 
TTITLE9=Hteo Bih Te Videt Još Jedared Mila
TTITLE10=Ublaži Nemir Moj
TTITLE11=Što To Šušti Bagrem Beli
TTITLE12=Nestaćeš Iz Mog Života
TTITLE13=Samrtno Proleće
TTITLE14=Tužna Je Nedelja
TTITLE15=Kradem Ti Se u Večeri
EXTD=
EXTT0=
EXTT1=
EXTT2=
EXTT3=
EXTT4=
EXTT5=
EXTT6=
EXTT7=
EXTT8=
EXTT9=
EXTT10=
EXTT11=
EXTT12=
EXTT13=
EXTT14=
EXTT15=
PLAYORDER=
